<?xml version="1.0" standalone="no"?>
<!DOCTYPE svg PUBLIC "-//W3C//DTD SVG 20010904//EN"
 "https://www.w3.org/TR/2001/REC-SVG-20010904/DTD/svg10.dtd">
<svg version="1.0" xmlns="https://www.w3.org/2000/svg"
 width="260.000000pt" height="260.000000pt" viewBox="0 0 260.000000 260.000000"
 preserveAspectRatio="xMidYMid meet">
<metadata>
Created by potrace 1.11, written by Peter Selinger 2001-2013
</metadata>
<g transform="translate(0.000000,260.000000) scale(0.100000,-0.100000)"
fill="#000000" stroke="none">
<path d="M1968 2513 c6 -2 18 -2 25 0 6 3 1 5 -13 5 -14 0 -19 -2 -12 -5z"/>
<path d="M1298 2273 c7 -3 16 -2 19 1 4 3 -2 6 -13 5 -11 0 -14 -3 -6 -6z"/>
<path d="M1381 2264 c11 -13 9 -14 -14 -9 -18 5 -37 1 -60 -14 -19 -11 -36
-18 -39 -16 -3 3 -26 1 -51 -5 -36 -8 -51 -7 -74 5 -31 16 -57 20 -33 5 20
-13 9 -21 -40 -27 -33 -5 -44 -11 -52 -32 l-10 -26 -10 25 c-7 20 -11 22 -18
10 -5 -8 -10 -25 -10 -37 0 -13 -4 -23 -8 -23 -5 0 -18 -9 -30 -21 -20 -18
-49 -18 -37 0 4 8 -85 3 -94 -5 -2 -2 17 -4 42 -4 26 0 47 -5 47 -11 0 -5 -9
-30 -20 -54 -20 -44 -51 -71 -65 -57 -4 4 -5 -2 -3 -13 2 -11 8 -20 15 -20 25
0 22 -13 -4 -20 -17 -4 -29 -2 -31 4 -5 14 -142 15 -142 1 0 -5 -18 -10 -40
-10 -30 0 -40 -4 -40 -16 0 -14 17 -16 143 -14 181 3 184 3 169 -12 -7 -7 -12
-20 -12 -29 0 -10 -5 -21 -10 -24 -7 -4 -9 3 -5 22 l6 28 -22 -25 -22 -25 8
25 c4 14 13 28 19 32 6 5 2 8 -11 8 -17 0 -21 -4 -17 -17 5 -15 4 -16 -5 -3
-9 12 -13 13 -20 2 -4 -8 -19 -13 -32 -12 -53 5 -109 -1 -109 -10 0 -5 18 -10
40 -10 35 0 40 -3 40 -24 0 -22 -5 -24 -77 -31 -43 -4 -80 -10 -83 -14 -3 -4
-70 -15 -150 -25 -152 -18 -320 -45 -332 -53 -5 -2 -13 -1 -19 3 -15 9 9 24
39 24 17 0 26 9 35 33 6 17 10 35 9 40 -1 4 2 7 7 7 5 0 7 9 4 20 -3 13 -13
20 -27 19 -17 -1 -17 -2 -3 -6 9 -2 17 -12 17 -21 0 -12 -3 -13 -12 -4 -20 20
-28 14 -28 -23 0 -30 -3 -35 -22 -35 -26 1 -72 30 -47 30 12 0 12 2 -1 10 -10
6 -11 10 -2 10 6 0 12 4 12 8 0 5 -7 9 -15 9 -24 0 -20 -58 5 -64 29 -8 25
-24 -5 -19 -24 5 -25 3 -25 -50 0 -59 3 -61 57 -39 44 19 48 19 31 1 -8 -7
-29 -17 -47 -21 -50 -11 -19 -25 57 -25 47 0 63 -3 59 -12 -4 -15 -98 -18
-134 -5 -21 8 -23 5 -23 -28 0 -31 3 -36 18 -30 9 4 26 10 37 13 20 5 20 5 1
-16 -11 -12 -27 -22 -38 -22 -17 0 -18 -28 -18 -745 l0 -745 1300 0 1300 0 0
1004 0 1005 -22 4 -23 4 23 2 c15 1 22 7 22 21 0 17 -7 20 -39 20 -21 0 -66 3
-100 6 -43 5 -61 3 -61 -5 0 -6 18 -12 43 -13 37 -1 38 -2 9 -5 -31 -4 -112
23 -112 38 0 10 58 29 62 20 2 -5 47 -11 101 -13 92 -5 97 -4 97 15 0 19 -5
20 -92 14 -51 -3 -117 -2 -146 2 -29 4 -55 4 -58 -1 -3 -4 0 -8 5 -8 6 0 11
-7 11 -15 0 -11 -11 -15 -40 -15 -32 0 -40 -4 -40 -18 0 -17 -12 -20 -117 -25
-74 -4 -119 -3 -121 3 -2 6 -39 10 -83 10 -68 0 -79 2 -81 18 0 9 -2 23 -2 29
-2 23 -20 16 -37 -13 -13 -24 -23 -30 -59 -32 -35 -3 -42 -1 -37 12 4 10 1 16
-7 16 -9 0 -12 8 -8 25 2 14 8 25 13 25 17 0 64 -22 71 -33 4 -6 10 -9 13 -5
8 7 -12 48 -23 47 -4 -1 -15 -1 -25 0 -21 1 -13 21 9 21 8 0 12 -4 9 -10 -3
-6 1 -7 9 -4 9 3 13 10 10 15 -7 12 -41 11 -65 -2 -13 -6 -25 -7 -32 -1 -23
18 -73 30 -89 21 -12 -7 -14 -4 -10 16 3 20 -1 27 -24 35 -20 8 -29 8 -34 0
-5 -8 -9 -7 -13 4 -8 20 -43 21 -51 1 -3 -8 -12 -12 -21 -9 -12 5 -13 10 -5
19 9 10 6 16 -9 24 -11 6 -27 11 -37 11 -14 0 -14 -3 -3 -16z m-291 -120 c0
-19 -4 -33 -9 -30 -5 4 -12 0 -15 -6 -3 -7 -3 -3 -1 8 3 13 -1 29 -10 37 -14
14 -14 17 2 26 25 13 33 5 33 -35z m871 -111 c28 -5 30 -7 14 -14 -27 -10
-105 -11 -105 -1 0 23 30 28 91 15z m389 3 c0 -9 -30 -14 -35 -6 -4 6 3 10 14
10 12 0 21 -2 21 -4z m-550 -20 c0 -3 -4 -8 -10 -11 -5 -3 -10 -1 -10 4 0 6 5
11 10 11 6 0 10 -2 10 -4z m-567 -31 c10 -4 39 -4 65 1 26 4 103 8 172 9 123
0 126 -1 170 -30 58 -39 105 -111 121 -183 7 -31 16 -61 20 -66 5 -5 4 -14 -1
-21 -5 -6 -1 -49 11 -110 24 -124 34 -246 34 -395 0 -95 -4 -122 -20 -155 -11
-22 -27 -41 -35 -43 -8 -2 -20 -10 -27 -19 -10 -13 -15 -14 -28 -3 -8 7 -15
18 -15 24 0 6 -8 20 -17 31 -15 20 -15 20 -10 -2 3 -13 0 -26 -5 -30 -6 -3 -8
-1 -5 4 8 13 -39 46 -53 38 -5 -3 -16 8 -25 25 -17 33 -35 40 -35 13 0 -15 2
-16 10 -3 15 23 12 6 -5 -26 -14 -27 -15 -28 -15 -6 0 13 -4 21 -9 18 -5 -4
-7 3 -4 14 8 29 -4 25 -22 -7 -13 -23 -15 -24 -10 -5 4 15 1 24 -9 28 -21 8
-20 21 4 51 11 14 17 29 14 34 -10 17 -51 9 -74 -16 -18 -19 -31 -24 -62 -21
-27 2 -41 -1 -45 -10 -3 -8 -9 -12 -13 -9 -5 3 -15 -2 -23 -10 -14 -13 -16
-13 -19 0 -3 13 -7 13 -28 2 -14 -8 -32 -11 -39 -9 -8 3 -11 0 -8 -5 3 -5 2
-15 -4 -23 -6 -10 -9 -11 -9 -2 0 6 -7 12 -15 12 -8 0 -15 -6 -15 -12 0 -10
-3 -10 -9 0 -6 10 -11 6 -19 -17 -6 -17 -18 -31 -27 -31 -9 0 -15 -6 -14 -12
5 -39 -2 -98 -11 -93 -16 10 -12 -7 7 -27 9 -10 12 -18 7 -18 -5 0 -15 9 -22
20 -7 11 -18 20 -26 20 -7 0 -21 15 -31 34 -11 19 -23 33 -27 30 -4 -3 -8 2
-8 10 0 9 -4 16 -10 16 -5 0 -10 8 -10 18 0 10 -7 28 -16 40 -23 33 -44 210
-47 387 -1 107 -6 154 -15 164 -7 7 -10 21 -7 30 4 9 9 32 11 51 4 31 3 33 -9
17 -11 -17 -13 -13 -11 30 0 28 7 58 13 69 10 16 12 13 8 -24 -3 -24 -1 -40 4
-36 5 3 9 14 9 24 0 11 11 44 24 75 19 42 35 61 72 85 27 16 54 30 61 30 7 0
13 5 13 10 0 6 24 10 53 10 28 0 58 4 66 9 15 9 25 9 54 -4z m850 -7 c3 -10
-7 -12 -39 -9 -28 2 -44 -1 -44 -8 0 -6 -18 -11 -42 -10 -40 1 -41 2 -13 9 28
7 29 8 5 10 -23 1 -23 2 -5 10 32 14 132 12 138 -2z m-273 -18 c0 -5 -5 -10
-11 -10 -5 0 -7 5 -4 10 3 6 8 10 11 10 2 0 4 -4 4 -10z m110 -32 c0 -6 -7 -7
-16 -4 -9 3 -18 6 -20 6 -3 0 -3 4 1 10 7 11 35 2 35 -12z m-132 -6 c6 -18
-15 -14 -22 4 -4 10 -1 14 6 12 6 -2 14 -10 16 -16z m652 -52 c-20 -13 -40
-13 -40 0 0 6 12 10 28 10 21 0 24 -2 12 -10z m-611 -147 c1 -12 9 -27 19 -32
9 -6 12 -11 7 -11 -18 0 -60 55 -62 81 -1 13 -4 38 -8 54 -4 22 1 17 19 -20
14 -27 25 -60 25 -72z m-993 74 c8 3 14 0 14 -6 0 -6 -4 -11 -10 -11 -13 0
-13 -27 1 -32 7 -2 7 -17 1 -44 -5 -22 -8 -54 -7 -70 1 -19 -3 -31 -11 -31 -8
0 -10 11 -6 36 10 57 8 86 -5 84 -9 -2 -9 5 -1 29 9 24 8 33 0 36 -7 2 -12 9
-12 15 0 8 3 8 11 0 6 -6 18 -9 25 -6z m-706 -27 c0 -5 -2 -10 -4 -10 -3 0 -8
5 -11 10 -3 6 -1 10 4 10 6 0 11 -4 11 -10z m238 -97 c2 -8 -6 -13 -22 -13
-14 0 -26 -4 -26 -10 0 -5 -11 -10 -24 -10 -18 0 -23 5 -21 18 2 9 4 21 4 25
1 13 84 3 89 -10z m1464 -35 c-8 -8 -9 -4 -5 13 4 13 8 18 11 10 2 -7 -1 -18
-6 -23z m-1595 6 c-3 -3 -12 -4 -19 -1 -8 3 -5 6 6 6 11 1 17 -2 13 -5z m193
-16 c0 -21 -21 -45 -26 -31 -4 9 -13 9 -31 2 -28 -10 -93 -2 -93 12 0 5 27 9
60 9 33 0 60 4 60 10 0 6 7 10 15 10 8 0 15 -6 15 -12z m-220 -48 c0 -5 -9
-10 -20 -10 -11 0 -20 5 -20 10 0 6 9 10 20 10 11 0 20 -4 20 -10z m297 -16
c-3 -3 -12 -4 -19 -1 -8 3 -5 6 6 6 11 1 17 -2 13 -5z m-160 -10 c-3 -3 -12
-4 -19 -1 -8 3 -5 6 6 6 11 1 17 -2 13 -5z m-114 -31 c11 4 14 2 10 -8 -4 -13
-9 -12 -34 2 -15 9 -25 21 -22 25 2 5 11 1 18 -8 7 -10 19 -15 28 -11z m185 0
c-10 -2 -18 -9 -18 -14 0 -5 -12 -9 -27 -8 l-28 1 30 13 c17 8 37 14 45 13 10
0 10 -2 -2 -5z m412 -111 c0 -7 -4 -11 -9 -8 -5 4 -4 -7 2 -23 6 -16 16 -29
21 -28 7 1 12 -27 14 -73 2 -41 7 -77 13 -80 6 -4 6 -27 1 -61 l-8 -54 -8 97
c-6 72 -12 101 -26 116 -10 11 -17 22 -14 25 3 2 -1 24 -7 49 -13 49 -6 94 11
68 6 -8 10 -21 10 -28z m1044 6 c-4 -12 -6 -48 -6 -80 1 -32 -3 -58 -9 -58
-10 0 -12 81 -3 129 4 17 11 31 16 31 5 0 6 -10 2 -22z m-1043 -201 c-10 -9
-11 -8 -5 6 3 10 9 15 12 12 3 -3 0 -11 -7 -18z m1049 -44 c0 -12 -4 -25 -10
-28 -6 -4 -10 11 -10 37 0 31 3 39 10 28 5 -8 10 -25 10 -37z m-400 -22 c0
-13 -29 -35 -37 -28 -7 8 15 37 28 37 5 0 9 -4 9 -9z m-26 -137 c3 -8 2 -12
-4 -9 -6 3 -10 10 -10 16 0 14 7 11 14 -7z m167 -62 c19 -16 23 -29 24 -85 1
-37 -2 -62 -6 -56 -4 7 -8 5 -12 -5 -3 -8 -2 -16 2 -18 5 -2 12 -14 16 -28 l8
-25 -21 25 c-17 20 -22 22 -35 11 -12 -9 -14 -19 -6 -37 11 -30 12 -54 1 -39
-4 6 -17 12 -28 12 -17 1 -23 -6 -28 -28 -3 -17 -10 -28 -16 -24 -5 3 -10 1
-10 -6 0 -7 -8 -3 -17 8 -10 11 -24 18 -30 16 -7 -3 -13 2 -13 11 0 9 -4 16
-10 16 -5 0 -10 -9 -10 -19 0 -25 -18 -37 -26 -18 -3 9 -13 13 -24 10 -12 -3
-16 -11 -13 -21 4 -9 2 -13 -4 -9 -6 4 -16 0 -23 -8 -6 -7 -17 -12 -25 -9 -7
3 -16 1 -20 -5 -6 -11 -35 9 -35 25 0 7 -40 44 -47 44 -2 0 -9 -14 -15 -31 -8
-23 -13 -28 -20 -17 -5 8 -6 3 -2 -14 9 -39 9 -70 0 -90 -10 -23 61 -99 74
-79 5 9 11 4 21 -17 7 -17 16 -27 19 -22 3 5 28 -2 55 -15 37 -19 57 -24 84
-19 57 10 103 32 130 63 14 16 35 30 46 32 11 3 20 11 20 19 0 8 3 17 6 20 4
3 21 34 40 70 19 36 35 58 37 50 1 -9 -4 -61 -12 -117 -16 -117 -81 -285 -123
-316 -28 -22 -82 -31 -101 -19 -18 12 32 108 90 171 36 38 40 46 25 49 -24 5
-59 -28 -87 -83 -33 -63 -65 -68 -118 -17 -24 22 -66 39 -113 45 -46 6 -47 6
-36 -17 6 -13 26 -33 44 -45 36 -23 42 -38 18 -47 -15 -6 -102 54 -140 96 -17
18 -17 20 -2 14 9 -3 17 -1 17 4 0 6 -8 13 -17 17 -55 19 -152 221 -153 318 0
31 -1 32 56 -35 l32 -36 6 30 c3 17 6 45 6 62 0 18 7 41 15 52 17 23 20 69 4
58 -15 -9 -1 53 18 83 9 13 12 23 7 23 -5 0 1 7 13 15 16 11 28 13 47 5 17 -6
27 -6 32 1 4 7 33 8 78 5 39 -4 112 -2 161 2 50 5 97 10 106 11 9 0 27 -7 40
-17z m-404 -304 c-3 -7 -5 -2 -5 12 0 14 2 19 5 13 2 -7 2 -19 0 -25z m-10
-60 c-3 -8 -6 -5 -6 6 -1 11 2 17 5 13 3 -3 4 -12 1 -19z m153 -362 c0 3 7 1
15 -6 8 -7 15 -16 15 -21 0 -16 -18 -9 -47 17 -23 21 -24 23 -5 14 12 -6 22
-8 22 -4z"/>
<path d="M1463 1583 c-24 -15 -43 -30 -43 -34 0 -4 12 -10 26 -13 20 -5 24
-11 19 -27 -6 -19 -5 -20 17 -8 12 7 41 18 63 25 39 12 39 13 10 14 -26 1 -27
3 -10 10 11 5 55 14 98 21 46 7 74 16 69 21 -5 5 -54 11 -108 14 -96 5 -100 4
-141 -23z"/>
<path d="M940 1565 c-26 -28 -28 -55 -1 -31 15 13 31 15 92 10 41 -3 105 -12
143 -20 67 -14 106 -12 106 7 0 5 -5 9 -12 9 -6 0 -21 8 -32 19 -18 16 -42 19
-148 23 -121 5 -128 4 -148 -17z"/>
<path d="M1740 1576 c0 -7 7 -19 15 -26 16 -13 20 -3 9 24 -8 20 -24 21 -24 2z"/>
<path d="M1165 1494 c68 -19 81 -18 65 1 -8 10 -29 15 -64 14 l-51 -1 50 -14z"/>
<path d="M1507 1490 c-15 -12 -24 -26 -21 -32 3 -5 12 0 21 11 18 27 26 26 38
-1 14 -32 65 -32 81 1 12 23 12 23 23 3 6 -10 28 -24 49 -29 33 -9 38 -8 39 8
1 10 -10 28 -24 39 -28 22 -48 27 -37 8 5 -8 2 -9 -12 -3 -10 5 -44 11 -74 13
-45 3 -60 0 -83 -18z"/>
<path d="M1085 1480 c-16 -4 -40 -12 -52 -19 -17 -9 -23 -9 -23 0 0 8 -4 8
-15 -1 -8 -7 -13 -16 -10 -20 3 -4 -2 -13 -10 -20 -8 -7 -15 -18 -15 -24 0 -7
3 -6 8 2 5 7 24 13 44 14 28 1 35 5 34 21 -1 11 5 22 12 24 6 3 12 -2 12 -9 0
-23 19 -35 50 -30 24 3 30 9 30 28 0 27 16 30 44 9 22 -17 36 -19 36 -6 0 20
-97 41 -145 31z"/>
<path d="M1658 1383 c7 -3 16 -2 19 1 4 3 -2 6 -13 5 -11 0 -14 -3 -6 -6z"/>
<path d="M1562 1207 c24 -24 45 -42 47 -40 9 6 -32 54 -59 68 -27 14 -26 12
12 -28z"/>
<path d="M1158 1173 c-27 -33 -49 -74 -46 -85 2 -6 12 8 22 31 11 22 22 41 26
41 5 0 10 7 14 15 7 20 2 19 -16 -2z"/>
<path d="M1250 1161 c0 -13 27 -21 45 -15 8 4 12 10 9 15 -7 12 -54 12 -54 0z"/>
<path d="M1110 729 c0 -5 5 -7 10 -4 6 3 10 8 10 11 0 2 -4 4 -10 4 -5 0 -10
-5 -10 -11z"/>
<path d="M1157 733 c-4 -3 -7 -16 -6 -27 0 -19 1 -19 10 3 10 24 8 36 -4 24z"/>
<path d="M1101 634 c0 -11 3 -14 6 -6 3 7 2 16 -1 19 -3 4 -6 -2 -5 -13z"/>
<path d="M1040 2251 c0 -4 11 -6 25 -3 14 2 25 6 25 8 0 2 -11 4 -25 4 -14 0
-25 -4 -25 -9z"/>
<path d="M1200 2244 c0 -8 5 -12 10 -9 6 4 8 11 5 16 -9 14 -15 11 -15 -7z"/>
<path d="M1160 2240 c0 -5 5 -10 10 -10 6 0 10 5 10 10 0 6 -4 10 -10 10 -5 0
-10 -4 -10 -10z"/>
<path d="M1618 2203 c12 -2 32 -2 45 0 12 2 2 4 -23 4 -25 0 -35 -2 -22 -4z"/>
<path d="M2080 2191 c0 -20 5 -22 48 -20 27 1 54 -1 60 -5 6 -4 21 -2 32 4 12
6 40 15 63 20 42 8 41 8 -19 9 -34 1 -89 4 -123 7 -58 7 -61 6 -61 -15z"/>
<path d="M2560 2180 c0 -13 7 -20 20 -20 13 0 20 7 20 20 0 13 -7 20 -20 20
-13 0 -20 -7 -20 -20z"/>
<path d="M1685 2179 c-11 -17 -2 -18 19 -3 17 12 17 14 4 14 -9 0 -20 -5 -23
-11z"/>
<path d="M1786 2181 c5 -5 20 -12 34 -16 22 -7 23 -6 11 9 -7 9 -23 16 -34 16
-13 0 -17 -4 -11 -9z"/>
<path d="M1920 2170 c0 -5 18 -10 40 -10 22 0 40 5 40 10 0 6 -18 10 -40 10
-22 0 -40 -4 -40 -10z"/>
<path d="M2240 2160 c0 -5 18 -10 40 -10 22 0 40 5 40 10 0 6 -18 10 -40 10
-22 0 -40 -4 -40 -10z"/>
<path d="M1790 2145 c0 -8 7 -15 16 -15 14 0 14 3 4 15 -7 8 -14 15 -16 15 -2
0 -4 -7 -4 -15z"/>
<path d="M2180 2135 c-11 -13 -8 -15 20 -15 28 0 31 2 20 15 -7 8 -16 15 -20
15 -4 0 -13 -7 -20 -15z"/>
<path d="M1978 2121 c-91 -5 -104 -8 -83 -18 14 -6 22 -7 19 -2 -3 6 44 7 120
3 113 -6 126 -5 126 9 0 13 -8 17 -37 15 -21 -1 -86 -4 -145 -7z"/>
<path d="M2043 2083 c-74 -7 -47 -23 37 -23 64 0 80 3 80 15 0 15 -19 17 -117
8z"/>
<path d="M135 2070 c-8 -13 15 -13 35 0 12 8 11 10 -7 10 -12 0 -25 -4 -28
-10z"/>
<path d="M0 2050 c0 -5 12 -10 28 -10 21 0 24 2 12 10 -20 13 -40 13 -40 0z"/>
<path d="M830 2029 c0 -5 5 -7 10 -4 6 3 10 8 10 11 0 2 -4 4 -10 4 -5 0 -10
-5 -10 -11z"/>
<path d="M273 1913 c9 -2 25 -2 35 0 9 3 1 5 -18 5 -19 0 -27 -2 -17 -5z"/>
<path d="M160 1850 c0 -28 2 -30 28 -24 34 8 36 10 27 23 -3 6 -16 11 -28 11
-18 0 -19 2 -7 10 13 8 12 10 -2 10 -13 0 -18 -8 -18 -30z"/>
<path d="M320 1860 c0 -5 18 -10 40 -10 22 0 40 5 40 10 0 6 -18 10 -40 10
-22 0 -40 -4 -40 -10z"/>
</g>
</svg>
